<svg width="8" height="10" viewBox="0 0 8 10" fill="none" xmlns="http://www.w3.org/2000/svg">
<path d="M6.82842 2.63827C6.07293 1.88278 5.06843 1.46671 4 1.46671H3.41356L4.35482 0.523147L3.83038 0L1.9972 1.83767L3.80645 3.67717L4.33457 3.15774L3.3999 2.20744H4C5.79716 2.20744 7.25927 3.66953 7.25927 5.46671C7.25927 7.26389 5.79716 8.72598 4 8.72598C2.20284 8.72598 0.740733 7.26387 0.740733 5.46664V5.09627L0 5.09635V5.46671C0 6.53516 0.416073 7.53964 1.17158 8.29513C1.92707 9.05064 2.93157 9.46671 4 9.46671C5.06843 9.46671 6.07293 9.05064 6.82842 8.29513C7.58393 7.53963 8 6.53514 8 5.46671C8 4.39829 7.58393 3.39378 6.82842 2.63827Z" fill="#007BFF"/>
</svg>
