<svg width="12" height="12" viewBox="0 0 12 12" fill="none" xmlns="http://www.w3.org/2000/svg">
<path d="M5.99983 0C3.56404 0 1.58215 1.98189 1.58215 4.41792C1.58215 5.05333 1.71221 5.66 1.96851 6.22124C3.07305 8.63824 5.19076 11.1901 5.81365 11.9145C5.86032 11.9687 5.92835 11.9999 5.99995 11.9999C6.07155 11.9999 6.13958 11.9687 6.18625 11.9145C6.80889 11.1902 8.9266 8.63848 10.0315 6.22124C10.2879 5.66 10.4179 5.05333 10.4179 4.41792C10.4176 1.98189 8.43574 0 5.99983 0ZM5.99983 6.7126C4.73453 6.7126 3.70502 5.68309 3.70502 4.41779C3.70502 3.15237 4.73453 2.12287 5.99983 2.12287C7.26512 2.12287 8.29463 3.15237 8.29463 4.41779C8.29475 5.68309 7.26525 6.7126 5.99983 6.7126Z" fill="#007BFF"/>
</svg>
