<svg width="12" height="12" viewBox="0 0 12 12" fill="none" xmlns="http://www.w3.org/2000/svg">
<g clip-path="url(#clip0)">
<path d="M9.27855 8.22447C9.28552 7.2751 8.91023 6.52428 8.16167 5.99405C7.58352 5.58581 6.8819 5.37286 6.20329 5.16822C4.78964 4.73966 4.37956 4.51393 4.37956 3.8379C4.37956 3.08488 5.35817 2.81696 6.19593 2.81696C6.80604 2.81696 7.50798 3.00665 7.94391 3.28778L8.80814 1.94932C8.23842 1.57998 7.45867 1.32806 6.6887 1.24986V0H5.09445V1.33751C3.6773 1.64925 2.78457 2.57547 2.78457 3.8379C2.78457 4.72203 3.15196 5.42319 3.87447 5.91774C4.42398 6.29529 5.09417 6.49801 5.74156 6.69429C7.12816 7.1134 7.69124 7.3688 7.68483 8.21459L7.68479 8.22082C7.68479 8.93073 6.74403 9.18308 5.93805 9.18308C5.17672 9.18308 4.3488 8.84942 3.87949 8.35332L2.72131 9.44884C3.31564 10.0774 4.17914 10.5219 5.09442 10.6961V12H6.6887V10.7241C8.26344 10.4987 9.27699 9.55065 9.27855 8.22447Z" fill="#007BFF"/>
</g>
<defs>
<clipPath id="clip0">
<rect width="12" height="12" fill="white"/>
</clipPath>
</defs>
</svg>
