<svg width="32" height="32" viewBox="0 0 32 32" fill="none" xmlns="http://www.w3.org/2000/svg">
<path d="M30.7761 12.8205L30.0786 12.0821L27.6308 5.48379C27.2137 4.36926 26.147 3.6308 24.9573 3.62396H7.4735C6.28376 3.62396 5.21709 4.36926 4.8 5.48379L2.38633 12L1.3812 12.9299C0.505983 13.6752 0 14.7693 0 15.918V25.5317C0.00683761 27.1043 1.28547 28.3761 2.85812 28.3761H4.66325C6.2359 28.3761 7.51453 27.1043 7.52137 25.5317V24.1368H24.4786V25.5317C24.4855 27.1043 25.7641 28.3761 27.3368 28.3761H29.1419C30.7145 28.3761 31.9932 27.1043 32 25.5317V15.665C31.9932 14.5915 31.5556 13.5658 30.7761 12.8205ZM6.08547 5.94875C6.30427 5.36755 6.85812 4.99148 7.4735 4.99148H24.9641C25.5795 4.99148 26.1333 5.37439 26.3521 5.94875L28.4855 11.6923H26.8923C26.5162 9.12824 24.1299 7.3573 21.5658 7.7402C19.5214 8.04106 17.9145 9.64789 17.6137 11.6923H3.95214L6.08547 5.94875ZM25.4974 11.6923H18.9949C19.3709 9.89405 21.135 8.74533 22.9333 9.1214C24.2188 9.3949 25.2239 10.4 25.4974 11.6923ZM6.15385 25.5317C6.14701 26.3522 5.48376 27.0086 4.66325 27.0086H2.85812C2.03761 27.0086 1.37436 26.3522 1.36752 25.5317V23.7402C1.77778 24.0069 2.31795 24.1368 2.85812 24.1368H6.15385V25.5317ZM30.6325 25.5317C30.6256 26.3522 29.9624 27.0086 29.1419 27.0086H27.3368C26.5162 27.0086 25.853 26.3453 25.8462 25.5317V24.1368H29.1419C29.6821 24.1368 30.2222 24.0069 30.6325 23.7402V25.5317ZM29.1419 22.7693H2.85812C2.04444 22.7761 1.37436 22.1265 1.36752 21.306V15.918C1.36752 15.1658 1.70256 14.4479 2.27692 13.9624C2.28376 13.9556 2.29744 13.9419 2.30427 13.9351L3.23419 13.0599H29.1282L29.7846 13.7641C29.7915 13.7778 29.812 13.7846 29.8188 13.7983C30.3316 14.2838 30.6256 14.9607 30.6256 15.665V21.306H30.6325C30.6256 22.1197 29.9556 22.7761 29.1419 22.7693Z" fill="#0EC261"/>
<path d="M9.02559 15.7949H3.89738C3.52132 15.7949 3.21362 16.1026 3.21362 16.4786V20.0342C3.21362 20.4102 3.52132 20.7179 3.89738 20.7179H9.02559C9.40166 20.7179 9.70935 20.4102 9.70935 20.0342V16.4786C9.70935 16.1026 9.40166 15.7949 9.02559 15.7949ZM8.34183 19.3504H4.58114V17.1624H8.34183V19.3504Z" fill="#0EC261"/>
<path d="M28.1025 15.7949H22.9743C22.5982 15.7949 22.2905 16.1026 22.2905 16.4786V20.0342C22.2905 20.4102 22.5982 20.7179 22.9743 20.7179H28.1025C28.4786 20.7179 28.7863 20.4102 28.7863 20.0342V16.4786C28.7863 16.1026 28.4786 15.7949 28.1025 15.7949ZM27.4187 19.3504H23.658V17.1624H27.4187V19.3504Z" fill="#0EC261"/>
<path d="M19.3026 18.6667H12.6974C12.3214 18.6667 12.0137 18.9744 12.0137 19.3504C12.0137 19.7265 12.3214 20.0342 12.6974 20.0342H19.3026C19.6786 20.0342 19.9863 19.7265 19.9863 19.3504C19.9863 18.9744 19.6786 18.6667 19.3026 18.6667Z" fill="#0EC261"/>
<path d="M19.3026 16.547H12.6974C12.3214 16.547 12.0137 16.8547 12.0137 17.2308C12.0137 17.6068 12.3214 17.9145 12.6974 17.9145H19.3026C19.6786 17.9145 19.9863 17.6068 19.9863 17.2308C19.9863 16.8547 19.6786 16.547 19.3026 16.547Z" fill="#0EC261"/>
</svg>
