<svg width="30" height="30" viewBox="0 0 30 30" fill="none" xmlns="http://www.w3.org/2000/svg">
<path d="M28.8526 12.0193L28.1987 11.3269L25.9038 5.14105C25.5128 4.09618 24.5128 3.40387 23.3974 3.39746H7.00641C5.89103 3.39746 4.89103 4.09618 4.5 5.14105L2.23718 11.25L1.29487 12.1218C0.474359 12.8205 0 13.8462 0 14.9231V23.9359C0.00641026 25.4103 1.20513 26.6026 2.67949 26.6026H4.37179C5.84615 26.6026 7.04487 25.4103 7.05128 23.9359V22.6282H22.9487V23.9359C22.9551 25.4103 24.1538 26.6026 25.6282 26.6026H27.3205C28.7949 26.6026 29.9936 25.4103 30 23.9359V14.6859C29.9936 13.6795 29.5833 12.718 28.8526 12.0193ZM5.70513 5.57695C5.91026 5.03208 6.42949 4.67951 7.00641 4.67951H23.4038C23.9808 4.67951 24.5 5.03849 24.7051 5.57695L26.7051 10.9616H25.2115C24.859 8.55772 22.6218 6.89746 20.2179 7.25643C18.3013 7.53849 16.7949 9.0449 16.5128 10.9616H3.70513L5.70513 5.57695ZM23.9038 10.9616H17.8077C18.1603 9.27567 19.8141 8.19874 21.5 8.55131C22.7051 8.80772 23.6474 9.75002 23.9038 10.9616ZM5.76923 23.9359C5.76282 24.7052 5.14103 25.3205 4.37179 25.3205H2.67949C1.91026 25.3205 1.28846 24.7052 1.28205 23.9359V22.2564C1.66667 22.5064 2.17308 22.6282 2.67949 22.6282H5.76923V23.9359ZM28.718 23.9359C28.7115 24.7052 28.0897 25.3205 27.3205 25.3205H25.6282C24.859 25.3205 24.2372 24.6987 24.2308 23.9359V22.6282H27.3205C27.8269 22.6282 28.3333 22.5064 28.718 22.2564V23.9359ZM27.3205 21.3462H2.67949C1.91667 21.3526 1.28846 20.7436 1.28205 19.9744V14.9231C1.28205 14.218 1.59615 13.5449 2.13462 13.0898C2.14103 13.0834 2.15385 13.0705 2.16026 13.0641L3.03205 12.2436H27.3077L27.9231 12.9039C27.9295 12.9167 27.9487 12.9231 27.9551 12.9359C28.4359 13.3911 28.7115 14.0257 28.7115 14.6859V19.9744H28.718C28.7115 20.7372 28.0833 21.3526 27.3205 21.3462Z" fill="white"/>
<path d="M8.46166 14.8077H3.65397C3.3014 14.8077 3.01294 15.0961 3.01294 15.4487V18.782C3.01294 19.1346 3.3014 19.4231 3.65397 19.4231H8.46166C8.81422 19.4231 9.10268 19.1346 9.10268 18.782V15.4487C9.10268 15.0961 8.81422 14.8077 8.46166 14.8077ZM7.82063 18.141H4.29499V16.0897H7.82063V18.141Z" fill="white"/>
<path d="M26.3462 14.8077H21.5385C21.1859 14.8077 20.8975 15.0961 20.8975 15.4487V18.782C20.8975 19.1346 21.1859 19.4231 21.5385 19.4231H26.3462C26.6987 19.4231 26.9872 19.1346 26.9872 18.782V15.4487C26.9872 15.0961 26.6987 14.8077 26.3462 14.8077ZM25.7052 18.141H22.1795V16.0897H25.7052V18.141Z" fill="white"/>
<path d="M18.0963 17.5H11.904C11.5514 17.5 11.2629 17.7885 11.2629 18.141C11.2629 18.4936 11.5514 18.7821 11.904 18.7821H18.0963C18.4489 18.7821 18.7373 18.4936 18.7373 18.141C18.7373 17.7885 18.4489 17.5 18.0963 17.5Z" fill="white"/>
<path d="M18.0963 15.5128H11.904C11.5514 15.5128 11.2629 15.8013 11.2629 16.1538C11.2629 16.5064 11.5514 16.7949 11.904 16.7949H18.0963C18.4489 16.7949 18.7373 16.5064 18.7373 16.1538C18.7373 15.8013 18.4489 15.5128 18.0963 15.5128Z" fill="white"/>
</svg>
